<svg width="297" height="384" viewBox="0 0 297 384" fill="none" xmlns="http://www.w3.org/2000/svg">
<path d="M33.2688 373.986L30.6904 371.408L42.2539 359.766L53.8174 371.408L42.2539 382.971L36.6284 377.346" stroke="#B22028" stroke-miterlimit="10" stroke-linecap="round" stroke-linejoin="round"/>
<path d="M36.3938 368.751L38.9722 371.408L27.4087 382.971L21.5488 377.112" stroke="#B22028" stroke-miterlimit="10" stroke-linecap="round" stroke-linejoin="round"/>
<path d="M18.4236 373.986L15.7671 371.408L27.4087 359.766L33.0342 365.47" stroke="#B22028" stroke-miterlimit="10" stroke-linecap="round" stroke-linejoin="round"/>
<path d="M21.5486 368.751L24.2051 371.408L12.5635 382.971L1 371.408L12.5635 359.766L18.2671 365.47" stroke="#B22028" stroke-miterlimit="10" stroke-linecap="round" stroke-linejoin="round"/>
<line x1="12.4995" y1="360" x2="12.4995" y2="213.814" stroke="#B22028"/>
<line x1="12.5" y1="206.3" x2="12.5" y2="153.017" stroke="#B22028"/>
<line x1="12.5" y1="145.503" x2="12.5" y2="125.01" stroke="#B22028"/>
<line x1="12.5" y1="100.417" x2="12.5" y2="1.52151e-05" stroke="#B22028"/>
<line x1="297" y1="371.5" x2="198.324" y2="371.5" stroke="#B22028"/>
<line x1="193.252" y1="371.5" x2="157.287" y2="371.5" stroke="#B22028"/>
<line x1="152.214" y1="371.5" x2="138.381" y2="371.5" stroke="#B22028"/>
<line x1="121.782" y1="371.5" x2="53.9999" y2="371.5" stroke="#B22028"/>
</svg>
