<svg width="72" height="63" viewBox="0 0 72 63" fill="none" xmlns="http://www.w3.org/2000/svg">
<path d="M25.6975 42.4848L32.9097 47.6363L32.9097 60L17.4551 45.5757L30.8491 31.1514L25.6975 27.0302" stroke="#B22028" strokeWidth="2"/>
<path d="M11.2731 39.3938L2.00031 31.1513L11.2731 20.8483L22.6064 31.1513" stroke="#B22028" strokeWidth="2"/>
<path d="M16.4248 35.2727L11.2733 31.1515" stroke="#B22028" strokeWidth="2"/>
<path d="M23.6369 23.9393L32.9097 14.6666L32.9097 2.30289L16.4248 16.7272L23.6369 23.9393Z" stroke="#B22028" strokeWidth="2"/>
<path d="M46.303 19.8179L39.0908 14.6664V2.30273L54.5454 16.727L41.1514 31.1513L46.303 35.2725" stroke="#B22028" strokeWidth="2"/>
<path d="M60.7274 22.9089L70.0002 31.1514L60.7274 41.4545L49.394 31.1514" stroke="#B22028" strokeWidth="2"/>
<path d="M55.5757 27.0302L60.7272 31.1514" stroke="#B22028" strokeWidth="2"/>
<path d="M48.3636 38.3634L39.0908 47.6362V59.9998L55.5757 45.5755L48.3636 38.3634Z" stroke="#B22028" strokeWidth="2"/>
</svg>
