<svg width="297" height="384" viewBox="0 0 297 384" fill="none" xmlns="http://www.w3.org/2000/svg">
<path d="M263.731 10.0138L266.31 12.5922L254.746 24.2338L243.183 12.5922L254.746 1.02868L260.372 6.65416" stroke="#B22028" stroke-miterlimit="10" stroke-linecap="round" stroke-linejoin="round"/>
<path d="M260.606 15.2486L258.028 12.5922L269.591 1.02869L275.451 6.88856" stroke="#B22028" stroke-miterlimit="10" stroke-linecap="round" stroke-linejoin="round"/>
<path d="M278.576 10.0139L281.233 12.5923L269.591 24.2339L263.966 18.5303" stroke="#B22028" stroke-miterlimit="10" stroke-linecap="round" stroke-linejoin="round"/>
<path d="M275.451 15.2488L272.795 12.5923L284.437 1.02881L296 12.5923L284.437 24.2339L278.733 18.5303" stroke="#B22028" stroke-miterlimit="10" stroke-linecap="round" stroke-linejoin="round"/>
<line x1="284.5" y1="24" x2="284.5" y2="170.186" stroke="#B22028"/>
<line x1="284.5" y1="177.7" x2="284.5" y2="230.983" stroke="#B22028"/>
<line x1="284.5" y1="238.497" x2="284.5" y2="258.991" stroke="#B22028"/>
<line x1="284.5" y1="283.583" x2="284.5" y2="384" stroke="#B22028"/>
<line x1="2.18557e-08" y1="12.5" x2="98.6756" y2="12.5" stroke="#B22028"/>
<line x1="103.748" y1="12.5" x2="139.713" y2="12.5" stroke="#B22028"/>
<line x1="144.786" y1="12.5" x2="158.619" y2="12.5" stroke="#B22028"/>
<line x1="175.218" y1="12.5" x2="243" y2="12.5" stroke="#B22028"/>
</svg>
